<svg xmlns="http://www.w3.org/2000/svg" viewBox="0 0 64 64" fill="none">
  <defs>
    <linearGradient id="g" x1="0" y1="0" x2="64" y2="64" gradientUnits="userSpaceOnUse">
      <stop offset="0%" stop-color="#e0a458"/>
      <stop offset="100%" stop-color="#fbbf24"/>
    </linearGradient>
  </defs>
  <rect width="64" height="64" rx="14" fill="#0B0F19"/>
  <!-- Chip body -->
  <rect x="18" y="18" width="28" height="28" rx="4" stroke="url(#g)" stroke-width="2.5" fill="none"/>
  <!-- Chip pins left -->
  <line x1="10" y1="26" x2="18" y2="26" stroke="url(#g)" stroke-width="2" stroke-linecap="round"/>
  <line x1="10" y1="32" x2="18" y2="32" stroke="url(#g)" stroke-width="2" stroke-linecap="round"/>
  <line x1="10" y1="38" x2="18" y2="38" stroke="url(#g)" stroke-width="2" stroke-linecap="round"/>
  <!-- Chip pins right -->
  <line x1="46" y1="26" x2="54" y2="26" stroke="url(#g)" stroke-width="2" stroke-linecap="round"/>
  <line x1="46" y1="32" x2="54" y2="32" stroke="url(#g)" stroke-width="2" stroke-linecap="round"/>
  <line x1="46" y1="38" x2="54" y2="38" stroke="url(#g)" stroke-width="2" stroke-linecap="round"/>
  <!-- Chip pins top -->
  <line x1="26" y1="10" x2="26" y2="18" stroke="url(#g)" stroke-width="2" stroke-linecap="round"/>
  <line x1="32" y1="10" x2="32" y2="18" stroke="url(#g)" stroke-width="2" stroke-linecap="round"/>
  <line x1="38" y1="10" x2="38" y2="18" stroke="url(#g)" stroke-width="2" stroke-linecap="round"/>
  <!-- Chip pins bottom -->
  <line x1="26" y1="46" x2="26" y2="54" stroke="url(#g)" stroke-width="2" stroke-linecap="round"/>
  <line x1="32" y1="46" x2="32" y2="54" stroke="url(#g)" stroke-width="2" stroke-linecap="round"/>
  <line x1="38" y1="46" x2="38" y2="54" stroke="url(#g)" stroke-width="2" stroke-linecap="round"/>
  <!-- Lightning bolt inside chip -->
  <path d="M35 23L28 33h5l-3 8 9-11h-5l3-7z" fill="#fbbf24"/>
</svg>
